# xmcd CD database file
#
# Track frame offsets:
#	150
#	24958
#	51714
#	79521
#	107963
#	132568
#	157498
#	186018
#	219705
#	246312
#
# Disc length: 3638 seconds
#
# Revision: 1
# Processed by: cddbd v1.5.2PL0 Copyright (c) Steve Scherf et al.
# Submitted via: CDex 1.70beta2
#
DISCID=970e340a
DTITLE=Thärichens Tentett - Farwell Songs
DYEAR=2009
DGENRE=Jazz
TTITLE0=Up to My Neck in You
TTITLE1=Farwell Suite I - Waltz For my Father
TTITLE2=Farwell Suite II - Strange Bells
TTITLE3=Farwell Suite III - If
TTITLE4=On Beeing a Woman
TTITLE5=This Time
TTITLE6=Unadored
TTITLE7=The Last day of My Youth
TTITLE8=I can See It in Your Eyes
TTITLE9=Nightfall
EXTD=YEAR: 2009
EXTT0=
EXTT1=
EXTT2=
EXTT3=
EXTT4=
EXTT5=
EXTT6=
EXTT7=
EXTT8=
EXTT9=
PLAYORDER=
